<?xml version="1.0" standalone="no"?>
<!DOCTYPE svg PUBLIC "-//W3C//DTD SVG 20010904//EN"
 "http://www.w3.org/TR/2001/REC-SVG-20010904/DTD/svg10.dtd">
<svg version="1.0" xmlns="http://www.w3.org/2000/svg"
 width="512.000000pt" height="512.000000pt" viewBox="0 0 512.000000 512.000000"
 preserveAspectRatio="xMidYMid meet">
<metadata>
Created by potrace 1.11, written by Peter Selinger 2001-2013
</metadata>
<g transform="translate(0.000000,512.000000) scale(0.100000,-0.100000)"
fill="#000000" stroke="none">
<path d="M0 2560 l0 -2560 2560 0 2560 0 0 2560 0 2560 -2560 0 -2560 0 0
-2560z m4765 2211 c7 -1 10 -743 10 -2211 0 -1958 -2 -2210 -15 -2211 -35 -3
-4396 -5 -4405 -2 -7 2 -10 742 -9 2206 1 1211 2 2207 3 2212 1 7 740 10 2204
9 1211 -1 2207 -2 2212 -3z"/>
<path d="M980 4444 c0 -1 3450 -3449 3453 -3451 1 -1 2 202 2 451 l0 453 -313
313 c-171 172 -312 313 -312 314 0 1 136 1 303 1 166 -1 307 0 312 2 7 2 10
114 10 321 l0 317 -635 0 -635 1 -317 318 c-175 175 -318 319 -318 320 0 0
424 1 943 0 518 0 947 1 952 3 7 2 10 114 10 321 l0 317 -1728 0 c-950 0
-1727 0 -1727 -1z"/>
<path d="M680 2415 l0 -1725 1725 0 c949 0 1725 2 1725 4 0 3 -142 147 -316
320 l-315 316 -1090 0 -1089 0 0 1089 0 1089 -315 316 c-174 174 -318 316
-320 316 -3 0 -5 -776 -5 -1725z"/>
</g>
</svg>
